<?xml version="1.0" encoding="iso-8859-1"?>
<!-- Generator: Adobe Illustrator 19.0.0, SVG Export Plug-In . SVG Version: 6.00 Build 0)  -->
<svg version="1.1" id="Layer_1" xmlns="http://www.w3.org/2000/svg" xmlns:xlink="http://www.w3.org/1999/xlink" x="0px" y="0px"
	 viewBox="0 0 503.607 503.607" style="enable-background:new 0 0 503.607 503.607;" xml:space="preserve">
<g transform="translate(1 1)">
	<g>
		<g>
			<path d="M477.426,49.361h-0.812c-3.797-19.358-20.536-33.574-41.155-33.574c-20.619,0-37.359,14.215-41.155,33.574h-10.017
				c-3.797-19.358-20.536-33.574-41.155-33.574c-20.619,0-37.359,14.215-41.155,33.574h-10.017
				c-3.797-19.358-20.536-33.574-41.155-33.574s-37.359,14.215-41.155,33.574h-10.017c-3.797-19.358-20.536-33.574-41.155-33.574
				s-37.359,14.215-41.155,33.574h-10.017c-3.797-19.358-20.536-33.574-41.155-33.574c-20.619,0-37.359,14.215-41.155,33.574H24.18
				C9.911,49.361-1,60.272-1,74.541v67.148v318.951c0,14.269,10.911,25.18,25.18,25.18h453.246c14.269,0,25.18-10.911,25.18-25.18
				V141.689V74.541C502.607,60.272,491.695,49.361,477.426,49.361z M435.459,32.574c11.302,0,20.492,6.849,23.827,16.787h-47.654
				C414.967,39.423,424.157,32.574,435.459,32.574z M343.131,32.574c11.302,0,20.492,6.849,23.827,16.787h-47.654
				C322.639,39.423,331.829,32.574,343.131,32.574z M250.803,32.574c11.302,0,20.492,6.849,23.827,16.787h-47.654
				C230.312,39.423,239.501,32.574,250.803,32.574z M158.475,32.574c11.302,0,20.492,6.849,23.827,16.787h-47.654
				C137.984,39.423,147.173,32.574,158.475,32.574z M66.148,32.574c11.302,0,20.492,6.849,23.827,16.787H42.321
				C45.656,39.423,54.845,32.574,66.148,32.574z M15.787,74.541c0-5.036,4.197-8.393,8.393-8.393h65.794
				c-3.335,9.938-12.525,16.787-23.827,16.787c-5.036,0-8.393,3.357-8.393,8.393s4.197,8.393,8.393,8.393
				c20.619,0,37.359-14.215,41.155-33.574h75c-3.335,9.938-12.525,16.787-23.827,16.787c-5.036,0-8.393,3.357-8.393,8.393
				s3.357,8.393,8.393,8.393c20.619,0,37.359-14.215,41.155-33.574h75c-3.335,9.938-12.525,16.787-23.827,16.787
				c-5.036,0-8.393,3.357-8.393,8.393s3.357,8.393,8.393,8.393c20.619,0,37.359-14.215,41.155-33.574h75
				c-3.335,9.938-12.525,16.787-23.827,16.787c-5.036,0-8.393,3.357-8.393,8.393s3.357,8.393,8.393,8.393
				c20.619,0,37.359-14.215,41.155-33.574h75c-3.335,9.938-12.525,16.787-23.827,16.787c-5.036,0-8.393,3.357-8.393,8.393
				s3.357,8.393,8.393,8.393c20.619,0,37.359-14.215,41.155-33.574h0.812c5.036,0,8.393,3.357,8.393,8.393v58.754H15.787V74.541z
				 M485.82,460.639c0,5.036-3.357,8.393-8.393,8.393H24.18c-5.036,0-8.393-3.357-8.393-8.393V150.082H485.82V460.639z"/>
			<path d="M74.541,250.803h50.361c5.036,0,8.393-3.357,8.393-8.393v-50.361c0-5.036-3.357-8.393-8.393-8.393H74.541
				c-5.036,0-8.393,3.357-8.393,8.393v50.361C66.148,247.446,69.505,250.803,74.541,250.803z M82.934,200.443h33.574v33.574H82.934
				V200.443z"/>
			<path d="M175.262,250.803h50.361c5.036,0,8.393-3.357,8.393-8.393v-50.361c0-5.036-3.357-8.393-8.393-8.393h-50.361
				c-5.036,0-8.393,3.357-8.393,8.393v50.361C166.869,247.446,170.226,250.803,175.262,250.803z M183.656,200.443h33.574v33.574
				h-33.574V200.443z"/>
			<path d="M275.984,250.803h50.361c5.036,0,8.393-3.357,8.393-8.393v-50.361c0-5.036-3.357-8.393-8.393-8.393h-50.361
				c-5.036,0-8.393,3.357-8.393,8.393v50.361C267.59,247.446,270.948,250.803,275.984,250.803z M284.377,200.443h33.574v33.574
				h-33.574V200.443z"/>
			<path d="M376.705,250.803h50.361c5.036,0,8.393-3.357,8.393-8.393v-50.361c0-5.036-3.357-8.393-8.393-8.393h-50.361
				c-5.036,0-8.393,3.357-8.393,8.393v50.361C368.311,247.446,371.669,250.803,376.705,250.803z M385.098,200.443h33.574v33.574
				h-33.574V200.443z"/>
			<path d="M74.541,343.131h50.361c5.036,0,8.393-3.357,8.393-8.393v-50.361c0-5.036-3.357-8.393-8.393-8.393H74.541
				c-5.036,0-8.393,3.357-8.393,8.393v50.361C66.148,339.774,69.505,343.131,74.541,343.131z M82.934,292.771h33.574v33.574H82.934
				V292.771z"/>
			<path d="M175.262,343.131h50.361c5.036,0,8.393-3.357,8.393-8.393v-50.361c0-5.036-3.357-8.393-8.393-8.393h-50.361
				c-5.036,0-8.393,3.357-8.393,8.393v50.361C166.869,339.774,170.226,343.131,175.262,343.131z M183.656,292.771h33.574v33.574
				h-33.574V292.771z"/>
			<path d="M275.984,343.131h50.361c5.036,0,8.393-3.357,8.393-8.393v-50.361c0-5.036-3.357-8.393-8.393-8.393h-50.361
				c-5.036,0-8.393,3.357-8.393,8.393v50.361C267.59,339.774,270.948,343.131,275.984,343.131z M284.377,292.771h33.574v33.574
				h-33.574V292.771z"/>
			<path d="M376.705,343.131h50.361c5.036,0,8.393-3.357,8.393-8.393v-50.361c0-5.036-3.357-8.393-8.393-8.393h-50.361
				c-5.036,0-8.393,3.357-8.393,8.393v50.361C368.311,339.774,371.669,343.131,376.705,343.131z M385.098,292.771h33.574v33.574
				h-33.574V292.771z"/>
			<path d="M74.541,435.459h50.361c5.036,0,8.393-3.357,8.393-8.393v-50.361c0-5.036-3.357-8.393-8.393-8.393H74.541
				c-5.036,0-8.393,3.357-8.393,8.393v50.361C66.148,432.102,69.505,435.459,74.541,435.459z M82.934,385.098h33.574v33.574H82.934
				V385.098z"/>
			<path d="M175.262,435.459h50.361c5.036,0,8.393-3.357,8.393-8.393v-50.361c0-5.036-3.357-8.393-8.393-8.393h-50.361
				c-5.036,0-8.393,3.357-8.393,8.393v50.361C166.869,432.102,170.226,435.459,175.262,435.459z M183.656,385.098h33.574v33.574
				h-33.574V385.098z"/>
			<path d="M275.984,435.459h50.361c5.036,0,8.393-3.357,8.393-8.393v-50.361c0-5.036-3.357-8.393-8.393-8.393h-50.361
				c-5.036,0-8.393,3.357-8.393,8.393v50.361C267.59,432.102,270.948,435.459,275.984,435.459z M284.377,385.098h33.574v33.574
				h-33.574V385.098z"/>
			<path d="M376.705,435.459h50.361c5.036,0,8.393-3.357,8.393-8.393v-50.361c0-5.036-3.357-8.393-8.393-8.393h-50.361
				c-5.036,0-8.393,3.357-8.393,8.393v50.361C368.311,432.102,371.669,435.459,376.705,435.459z M385.098,385.098h33.574v33.574
				h-33.574V385.098z"/>
		</g>
	</g>
</g>
<g>
</g>
<g>
</g>
<g>
</g>
<g>
</g>
<g>
</g>
<g>
</g>
<g>
</g>
<g>
</g>
<g>
</g>
<g>
</g>
<g>
</g>
<g>
</g>
<g>
</g>
<g>
</g>
<g>
</g>
</svg>
