<svg width="21" height="12" viewBox="0 0 21 12" fill="none" xmlns="http://www.w3.org/2000/svg">
<g clip-path="url(#clip0)">
<path d="M20.1301 9.719C20.4061 10.0549 20.6674 10.4016 20.8673 10.7915C21.1505 11.3457 20.894 11.9556 20.4018 11.9887L17.3425 11.9873C16.5534 12.0534 15.924 11.7327 15.3947 11.1879C14.9711 10.7523 14.5788 10.2886 14.1716 9.83828C14.0046 9.65421 13.8298 9.48101 13.621 9.3441C13.2034 9.07037 12.8409 9.15418 12.6022 9.59401C12.3591 10.0414 12.304 10.5367 12.2801 11.0353C12.2474 11.7627 12.0296 11.954 11.306 11.9873C9.75946 12.0609 8.29175 11.8246 6.9283 11.0369C5.72623 10.3424 4.79408 9.36201 3.98274 8.25209C2.40305 6.09085 1.19332 3.716 0.106057 1.27462C-0.138676 0.724571 0.0403038 0.429308 0.641339 0.418858C1.63938 0.39928 2.63729 0.400674 3.63651 0.417464C4.04214 0.423456 4.31068 0.658384 4.4673 1.04533C5.00728 2.386 5.66799 3.66152 6.49734 4.84382C6.7182 5.15859 6.94341 5.47336 7.26411 5.69492C7.61889 5.94023 7.88902 5.85892 8.05592 5.45985C8.16183 5.20681 8.2082 4.93426 8.23207 4.66324C8.31114 3.73084 8.32156 2.80005 8.18288 1.87092C8.09773 1.29106 7.77427 0.915676 7.20125 0.805946C6.90884 0.75 6.95238 0.64013 7.09396 0.471598C7.33987 0.180934 7.57115 0 8.03219 0H11.4897C12.034 0.108477 12.1549 0.355388 12.2294 0.90843L12.2324 4.78649C12.2265 5.00058 12.3383 5.63591 12.7202 5.77761C13.0259 5.8785 13.2273 5.63159 13.4107 5.43588C14.2386 4.5487 14.8294 3.50023 15.3572 2.41456C15.5915 1.93718 15.7929 1.44141 15.9881 0.946052C16.1327 0.578472 16.3596 0.397608 16.7696 0.40562L20.0973 0.408616C20.196 0.408616 20.2958 0.410079 20.3914 0.426591C20.9521 0.523084 21.1058 0.766651 20.9326 1.31955C20.6597 2.18702 20.1288 2.90992 19.6096 3.63616C19.0547 4.41152 18.4612 5.16034 17.9109 5.94029C17.4053 6.65253 17.4454 7.01154 18.0735 7.63015C18.7701 8.31689 19.5053 8.96301 20.1301 9.719Z" fill="white"/>
</g>
<defs>
<clipPath id="clip0">
<rect width="21" height="12" fill="white"/>
</clipPath>
</defs>
</svg>
