<svg width="30" height="30" viewBox="0 0 30 30" fill="none" xmlns="http://www.w3.org/2000/svg">
<path d="M28.5 4.5H1.49998C0.649971 4.5 0 5.14997 0 5.99998V16C0 16.85 0.649971 17.4999 1.49998 17.4999H28.5C29.35 17.4999 29.9999 16.85 29.9999 16V5.99998C30 5.14997 29.35 4.5 28.5 4.5ZM29 16C29 16.3 28.8 16.4999 28.5 16.4999H1.49998C1.19998 16.4999 1.00001 16.3 1.00001 16V5.99998C1.00001 5.69998 1.25002 5.5 1.49998 5.5H28.5C28.8 5.5 28.9999 5.69998 28.9999 5.99998V16H29Z" fill="#4A4A4A"/>
<path d="M13.0002 8.99995H17.0002C17.3002 8.99995 17.5002 8.79997 17.5002 8.49997C17.5002 8.19998 17.3002 8 17.0002 8H13.0002C12.7002 8 12.5002 8.19998 12.5002 8.49997C12.5002 8.79997 12.7002 8.99995 13.0002 8.99995Z" fill="#4A4A4A"/>
<path d="M27.4999 14.5H2.49997C2.19998 14.5 2 14.7 2 15C2 15.3 2.19998 15.4999 2.49997 15.4999H27.4999C27.7999 15.4999 27.9999 15.3 27.9999 15C27.9999 14.7 27.7999 14.5 27.4999 14.5Z" fill="#4A4A4A"/>
<path d="M27.4999 12.4999H2.49997C2.19998 12.4999 2 12.6999 2 12.9999C2 13.2998 2.19998 13.4998 2.49997 13.4998H27.4999C27.7999 13.4998 27.9999 13.2998 27.9999 12.9999C27.9999 12.6999 27.7999 12.4999 27.4999 12.4999Z" fill="#4A4A4A"/>
<path d="M15.25 21.0501C14.75 20.8001 14.5 20.5001 14.5 20.2501C14.5 20 14.8 19.7 15.2 19.4C15.45 19.3 15.5 19 15.4 18.7501C15.3 18.5001 15 18.4001 14.75 18.5501C13.95 19.0001 13.5 19.6001 13.5 20.2501C13.5 20.9001 13.95 21.5001 14.75 22.0001C15.25 22.2501 15.5 22.5501 15.5 22.8001C15.5 23.0502 15.2 23.3502 14.75 23.6001C14.5 23.7001 14.4001 24.0001 14.5501 24.2501C14.6501 24.4001 14.8001 24.5001 15.0001 24.5001C15.1001 24.5001 15.15 24.5001 15.2501 24.4501C16.0501 24.0001 16.5001 23.4001 16.5001 22.7501C16.5001 22.1001 16.05 21.4501 15.25 21.0501Z" fill="#4A4A4A"/>
<path d="M9.75024 22.0501C9.25027 21.8001 9.00025 21.5001 9.00025 21.2501C9.00025 21 9.30025 20.7 9.70026 20.4C9.95028 20.3 10.0502 20 9.90024 19.7501C9.80022 19.5001 9.50022 19.4001 9.25027 19.5501C8.45024 20.0001 8.00024 20.6001 8.00024 21.2501C8.00024 21.9001 8.45024 22.5001 9.25027 23.0001C9.75024 23.2501 10.0003 23.5501 10.0003 23.8001C10.0003 24.0502 9.70026 24.3502 9.25027 24.6002C9.00025 24.7002 8.90029 25.0002 9.05029 25.2501C9.15031 25.4001 9.30031 25.5002 9.50028 25.5002C9.6003 25.5002 9.65028 25.5002 9.7503 25.4502C10.5503 25.0002 11.0003 24.4002 11.0003 23.7502C11.0003 23.1001 10.5503 22.4501 9.75024 22.0501Z" fill="#4A4A4A"/>
<path d="M20.7498 22.0501C20.2498 21.8001 19.9998 21.5001 19.9998 21.2501C19.9998 21 20.2998 20.7 20.6998 20.4C20.9498 20.3 20.9998 20 20.8997 19.7501C20.7997 19.5001 20.4997 19.4001 20.2498 19.5501C19.4497 20.0001 18.9998 20.6001 18.9998 21.2501C18.9998 21.9001 19.4497 22.5001 20.2498 23.0001C20.7498 23.2501 20.9998 23.5501 20.9998 23.8001C20.9998 24.0502 20.6998 24.3502 20.2498 24.6002C19.9998 24.7002 19.8998 25.0002 20.0498 25.2501C20.1498 25.4001 20.2998 25.5002 20.4998 25.5002C20.5998 25.5002 20.6498 25.5002 20.7498 25.4502C21.5498 25.0002 21.9998 24.4002 21.9998 23.7502C21.9998 23.1001 21.5497 22.4501 20.7498 22.0501Z" fill="#4A4A4A"/>
</svg>
