<svg width="30" height="30" viewBox="0 0 30 30" fill="none" xmlns="http://www.w3.org/2000/svg">
<path d="M28.5 16H28V5.5C28 2.99998 26 1 23.5 1C21.2869 1 19.6952 2.64098 19.5172 5.04537C18.3553 5.26498 17.5 6.26564 17.5 7.49998C17.5 7.79998 17.7 7.99996 18 7.99996H22C22.3 7.99996 22.5 7.79998 22.5 7.49998C22.5 6.2793 21.6636 5.28695 20.5215 5.0527C20.6709 3.46387 21.6251 1.99996 23.5 1.99996C25.45 1.99996 27 3.54994 27 5.49994V15.9999H11.9517C11.7255 14.8468 10.7283 14 9.50004 14C9.00006 13.4 8.30004 12.9999 7.50006 12.9999C6.55008 12.9999 5.70006 13.55 5.30004 14.3499C4.90002 14.15 4.45002 14 4.00002 14C2.77172 14 1.77457 14.8468 1.5484 15.9999H1.5C0.64998 15.9999 0 16.6499 0 17.4999C0 18.35 0.64998 18.9999 1.5 18.9999H2.10088L3.45 24.35C3.85002 25.8999 5.25 27 6.85002 27H7.25004L6.60006 28.3C6.45006 28.55 6.55008 28.85 6.80004 28.95C6.85002 29 6.95004 29 7.00002 29C7.2 29 7.35 28.8999 7.45002 28.7499L8.325 27H22.2L23.05 28.7C23.15 28.8999 23.3 29 23.5 29C23.6 29 23.65 29 23.7 28.8999C23.9 28.7999 24 28.4999 23.9 28.25L23.2737 26.9973C24.8217 26.9423 26.1604 25.8612 26.55 24.3999L27.9117 18.9999H28.5C29.35 18.9999 30 18.35 30 17.4999C30 16.65 29.35 16 28.5 16ZM21.45 7H18.6C18.8 6.4 19.4 5.99998 20.05 5.99998C20.7001 5.99998 21.25 6.4 21.45 7ZM4.00002 15C4.45002 15 4.85004 15.2 5.20002 15.55C5.30004 15.7 5.50002 15.75 5.7 15.7C5.89998 15.65 6 15.5 6.04998 15.3C6.19998 14.55 6.79998 14 7.54998 14C8.1 14 8.59998 14.25 8.85 14.75C8.95002 14.9499 9.19998 15.05 9.40002 15C9.45 15 9.50004 15 9.55002 15C10.2 15 10.75 15.4 10.95 16H2.59998C2.80002 15.4 3.34998 15 4.00002 15ZM25.65 24.1C25.35 25.2 24.35 26 23.2 26H6.9C5.74998 26 4.75002 25.2 4.45002 24.1L3.15 19H26.85L25.65 24.1ZM28.5 18H27.5H2.50002H1.5C1.2 18 1.00002 17.8 1.00002 17.5C1.00002 17.2 1.2 17 1.5 17H1.99998H11.5H28.5C28.8 17 29 17.2 29 17.5C29 17.8 28.8 18 28.5 18Z" fill="#4A4A4A"/>
<path d="M18 10.25C18.3 10.25 18.5 10.05 18.5 9.75V9.49998C18.5 9.19998 18.3 9 18 9C17.7 9 17.5 9.19998 17.5 9.49998V9.75C17.5 10.05 17.7 10.25 18 10.25Z" fill="#4A4A4A"/>
<path d="M18 12.55C18.3 12.55 18.5 12.3 18.5 12.05V11.5C18.5 11.2 18.3 11 18 11C17.7 11 17.5 11.2 17.5 11.5V12.05C17.5 12.3499 17.7 12.55 18 12.55Z" fill="#4A4A4A"/>
<path d="M18 14.5C18.3 14.5 18.5 14.3 18.5 14V13.75C18.5 13.45 18.3 13.25 18 13.25C17.7 13.25 17.5 13.45 17.5 13.75V14C17.5 14.2999 17.7 14.5 18 14.5Z" fill="#4A4A4A"/>
<path d="M20 10.25C20.3 10.25 20.5 10.05 20.5 9.75V9.49998C20.5 9.19998 20.3 9 20 9C19.7 9 19.5 9.19998 19.5 9.49998V9.75C19.5 10.05 19.7 10.25 20 10.25Z" fill="#4A4A4A"/>
<path d="M19.5 12.05C19.5 12.35 19.7 12.55 20 12.55C20.3 12.55 20.5 12.3 20.5 12.05V11.5C20.5 11.2 20.3 11 20 11C19.7 11 19.5 11.2 19.5 11.5V12.05Z" fill="#4A4A4A"/>
<path d="M19.5 13.9999C19.5 14.2999 19.7 14.4999 20 14.4999C20.3 14.4999 20.5 14.2999 20.5 13.9999V13.7499C20.5 13.4499 20.3 13.2499 20 13.2499C19.7 13.2499 19.5 13.4499 19.5 13.7499V13.9999Z" fill="#4A4A4A"/>
<path d="M22 10.25C22.3 10.25 22.5 10.05 22.5 9.75V9.49998C22.5 9.19998 22.3 9 22 9C21.7 9 21.5 9.19998 21.5 9.49998V9.75C21.4999 10.05 21.7 10.25 22 10.25Z" fill="#4A4A4A"/>
<path d="M21.5 12.05C21.5 12.35 21.7 12.55 22 12.55C22.3 12.55 22.5 12.3 22.5 12.05V11.5C22.5 11.2 22.3 11 22 11C21.7 11 21.5001 11.2 21.5001 11.5V12.05H21.5Z" fill="#4A4A4A"/>
<path d="M21.5 13.9999C21.5 14.2999 21.7 14.4999 22 14.4999C22.3 14.4999 22.5 14.2999 22.5 13.9999V13.7499C22.5 13.4499 22.3 13.2499 22 13.2499C21.7 13.2499 21.5 13.4499 21.5 13.7499V13.9999Z" fill="#4A4A4A"/>
</svg>
