<svg width="30" height="30" viewBox="0 0 30 30" fill="none" xmlns="http://www.w3.org/2000/svg">
<path d="M26.4999 11.5H10.8529C10.9473 11.2872 10.9999 11.0507 10.9999 10.8V10.2C10.9999 9.24993 10.25 8.49994 9.29993 8.49994H5.69998C4.74995 8.49994 3.99996 9.24993 3.99996 10.2V10.8C3.99996 11.0507 4.05262 11.2872 4.14698 11.5H3.00002V4.00001C3.00002 3.44999 2.55002 3 2.00001 3H1.00001C0.449994 3 0 3.44999 0 4.00001V12V26C0 26.55 0.449994 27 1.00001 27H2.00001C2.55002 27 3.00002 26.55 3.00002 26V19.5H7.50001H27V26C27 26.55 27.45 27 28 27H29C29.55 27 30 26.55 30 26V15C30 13.05 28.45 11.5 26.4999 11.5ZM4.99997 10.8V10.2C4.99997 9.79994 5.29997 9.49995 5.69998 9.49995H9.29999C9.7 9.49995 10 9.79994 10 10.2V10.8C10 11.2 9.7 11.5 9.29999 11.5H7.50001H5.69998C5.30003 11.5 4.99997 11.2 4.99997 10.8ZM1.00001 4.00001H2.00001V11.5H1.00001V4.00001ZM2.49998 18.4999C2.19999 18.4999 2.00001 18.6999 2.00001 18.9999V25.9999H1.00001V12.5H2.49998H5.69998H6.99998V18.4999H2.49998ZM29 26H28V19C28 18.7 27.8 18.5 27.5 18.5H7.99999V12.5H9.29999H26.4999C27.9 12.5 28.9999 13.6 28.9999 15V26H29Z" fill="#4A4A4A"/>
</svg>
