<svg width="30" height="30" viewBox="0 0 30 30" fill="none" xmlns="http://www.w3.org/2000/svg">
<path d="M29.5 21.75H28V6.24998C28 5.39997 27.35 4.75 26.5 4.75H3.49999C2.64998 4.75 2.00001 5.39997 2.00001 6.24998V21.75H0.499973C0.199977 21.75 0 21.95 0 22.25V23.7499C0 24.5999 0.649971 25.2499 1.49998 25.2499H28.5C29.35 25.2499 29.9999 24.5999 29.9999 23.7499V22.25C30 21.95 29.8 21.75 29.5 21.75ZM3.00002 6.24998C3.00002 5.94998 3.25003 5.75001 3.49999 5.75001H26.4999C26.7999 5.75001 26.9999 5.94998 26.9999 6.24998V21.75H19C18.7 21.75 18.5 21.95 18.5 22.25V22.7499H11.5V22.25C11.5 21.95 11.3 21.75 11 21.75H3.00002V6.24998ZM29 23.75C29 24.05 28.8 24.25 28.5 24.25H1.49998C1.19998 24.25 1.00001 24.05 1.00001 23.75V22.75H2.49998H10.5V23.25C10.5 23.55 10.7 23.7499 10.9999 23.7499H18.9999C19.2999 23.7499 19.4999 23.55 19.4999 23.25V22.75H27.4999H28.9999V23.75H29Z" fill="#4A4A4A"/>
<path d="M20.9999 11.7501C21.0999 11.8501 21.1999 11.9001 21.3499 11.9001C21.4999 11.9001 21.5999 11.8501 21.7499 11.7501C21.9499 11.5501 21.9499 11.2501 21.7499 11.05C18.0499 7.35002 11.9999 7.35002 8.29989 11.05C8.09991 11.25 8.09991 11.55 8.29989 11.7501C8.49986 11.95 8.79986 11.95 8.9999 11.7501C12.2999 8.45004 17.6999 8.45004 20.9999 11.7501Z" fill="#4A4A4A"/>
<path d="M19.2499 13.5C19.3499 13.6 19.4499 13.65 19.5999 13.65C19.7499 13.65 19.8499 13.6 19.9499 13.5C20.1498 13.3 20.1498 13 19.9499 12.8C18.6499 11.5 16.8499 10.75 14.9999 10.75C13.1499 10.75 11.3499 11.5 10.0499 12.8C9.84991 13 9.84991 13.3 10.0499 13.5C10.2499 13.7 10.5499 13.7 10.7499 13.5C11.8999 12.35 13.3999 11.75 14.9999 11.75C16.5999 11.75 18.0999 12.4 19.2499 13.5Z" fill="#4A4A4A"/>
<path d="M11.8502 14.5499C11.6502 14.7499 11.6502 15.0499 11.8502 15.2499C12.0502 15.4499 12.3502 15.4499 12.5502 15.2499C13.9002 13.9 16.1502 13.9 17.5002 15.2499C17.6002 15.35 17.7001 15.3999 17.8501 15.3999C17.9502 15.3999 18.1002 15.35 18.2001 15.2499C18.4001 15.05 18.4001 14.75 18.2001 14.5499C16.4501 12.7999 13.6002 12.7999 11.8502 14.5499Z" fill="#4A4A4A"/>
<path d="M15 15.7499C13.9 15.7499 13 16.6499 13 17.7499C13 18.8499 13.9 19.7499 15 19.7499C16.1 19.7499 17 18.8499 17 17.7499C17 16.6499 16.1 15.7499 15 15.7499ZM15 18.7499C14.45 18.7499 14 18.2999 14 17.7499C14 17.1999 14.45 16.7499 15 16.7499C15.55 16.7499 16 17.1999 16 17.7499C16 18.2999 15.55 18.7499 15 18.7499Z" fill="#4A4A4A"/>
</svg>
