<svg width="30" height="30" viewBox="0 0 30 30" fill="none" xmlns="http://www.w3.org/2000/svg">
<path d="M28 6.9936H15.9151L19.45 1.29362C19.6 1.0436 19.55 0.743608 19.3 0.59361C19.05 0.443612 18.75 0.493592 18.6 0.743608L14.9929 6.56005L10.9 0.693569C10.75 0.493592 10.45 0.443553 10.2 0.593551C10 0.743549 9.94996 1.04354 10.1 1.29356L14.0767 6.99354H2.00001C0.899988 6.9936 0 7.89359 0 8.99361V25.9936C0 27.0936 0.899988 27.9936 2.00001 27.9936H2.49998V28.9936C2.49998 29.2936 2.69996 29.4936 2.99996 29.4936C3.29995 29.4936 3.49993 29.2936 3.49993 28.9936V27.9936H26.4999V28.9936C26.4999 29.2936 26.6999 29.4936 26.9999 29.4936C27.2999 29.4936 27.4998 29.2936 27.4998 28.9936V27.9936H27.9998C29.0998 27.9936 29.9998 27.0936 29.9998 25.9936V8.99361C30 7.89359 29.1 6.9936 28 6.9936ZM29 25.9936C29 26.5436 28.55 26.9936 28 26.9936H2.00001C1.45 26.9936 1.00001 26.5436 1.00001 25.9936V8.99361C1.00001 8.4436 1.45 7.99361 2.00001 7.99361H28C28.55 7.99361 29 8.4436 29 8.99361V25.9936Z" fill="#4A4A4A"/>
<path d="M19 8.99365H5.00002C3.35004 8.99365 2 10.3436 2 11.9937V22.9937C2 24.6437 3.34998 25.9937 5.00002 25.9937H19C20.65 25.9937 22 24.6437 22 22.9937V11.9936C22 10.3436 20.65 8.99365 19 8.99365ZM21.0001 22.9936C21.0001 24.0936 20.1001 24.9936 19 24.9936H5.00002C3.89999 24.9936 3.00001 24.0936 3.00001 22.9936V11.9936C3.00001 10.8936 3.89999 9.9936 5.00002 9.9936H19C20.1 9.9936 21 10.8936 21 11.9936V22.9936H21.0001Z" fill="#4A4A4A"/>
<path d="M27.5 11.4935H23.5C23.2 11.4935 23 11.6935 23 11.9935C23 12.2935 23.2 12.4935 23.5 12.4935H27.5C27.8 12.4935 28 12.2935 28 11.9935C28 11.6935 27.8 11.4935 27.5 11.4935Z" fill="#4A4A4A"/>
<path d="M27.5 13.4937H23.5C23.2 13.4937 23 13.6936 23 13.9936C23 14.2936 23.2 14.4936 23.5 14.4936H27.5C27.8 14.4936 28 14.2936 28 13.9936C28 13.6936 27.8 13.4937 27.5 13.4937Z" fill="#4A4A4A"/>
<path d="M27.5 15.4935H23.5C23.2 15.4935 23 15.6935 23 15.9935C23 16.2935 23.2 16.4935 23.5 16.4935H27.5C27.8 16.4935 28 16.2935 28 15.9935C28 15.6935 27.8 15.4935 27.5 15.4935Z" fill="#4A4A4A"/>
<path d="M27.5 17.4937H23.5C23.2 17.4937 23 17.6936 23 17.9936V21.9936C23 22.2936 23.2 22.4936 23.5 22.4936H27.5C27.8 22.4936 28 22.2936 28 21.9936V17.9936C28 17.6937 27.8 17.4937 27.5 17.4937ZM27 21.4937H24V18.4937H27V21.4937Z" fill="#4A4A4A"/>
<path d="M6.14994 11.1436L4.14998 13.1437C3.95001 13.3436 3.95001 13.6436 4.14998 13.8437C4.25 13.9437 4.34996 13.9937 4.49996 13.9937C4.64996 13.9937 4.74997 13.9437 4.84993 13.8437L6.84995 11.8436C7.04992 11.6437 7.04992 11.3437 6.84995 11.1436C6.64997 10.9437 6.34997 10.9437 6.14994 11.1436Z" fill="#4A4A4A"/>
<path d="M4.64996 15.1435L4.14998 15.6435C3.95001 15.8435 3.95001 16.1435 4.14998 16.3435C4.25 16.4435 4.34996 16.4935 4.49996 16.4935C4.64996 16.4935 4.74997 16.4435 4.84993 16.3435L5.34991 15.8435C5.54988 15.6435 5.54988 15.3436 5.34991 15.1435C5.14993 14.9435 4.84993 14.9435 4.64996 15.1435Z" fill="#4A4A4A"/>
<path d="M9.14997 10.6435L7.64998 12.1435C7.45001 12.3435 7.45001 12.6435 7.64998 12.8435C7.75 12.9435 7.84996 12.9935 7.99996 12.9935C8.14996 12.9935 8.24998 12.9435 8.34994 12.8435L9.84993 11.3435C10.0499 11.1436 10.0499 10.8436 9.84993 10.6435C9.64995 10.4435 9.34995 10.4436 9.14997 10.6435Z" fill="#4A4A4A"/>
<path d="M6.49997 13.4937C6.19998 13.4937 6 13.6936 6 13.9936C6 14.2936 6.19998 14.4936 6.49997 14.4936C6.79997 14.4936 6.99995 14.2936 6.99995 13.9936C6.99995 13.6936 6.79997 13.4937 6.49997 13.4937Z" fill="#4A4A4A"/>
</svg>
