<?xml version="1.0" encoding="iso-8859-1"?>
<!-- Generator: Adobe Illustrator 19.0.0, SVG Export Plug-In . SVG Version: 6.00 Build 0)  -->
<svg xmlns="http://www.w3.org/2000/svg" xmlns:xlink="http://www.w3.org/1999/xlink" version="1.1" id="Capa_1" x="0px" y="0px" viewBox="0 0 512 512" style="enable-background:new 0 0 512 512;" xml:space="preserve" width="512px" height="512px">
<g>
	<g>
		<g>
			<path d="M91.429,438.857h128c15.148,0,27.429-12.28,27.429-27.429v-384C246.857,12.28,234.577,0,219.429,0h-128     C76.28,0,64,12.28,64,27.429v384C64,426.577,76.28,438.857,91.429,438.857z" fill="#e7b215"/>
			<path d="M502.857,137.143H265.143v274.286c0,25.247-20.467,45.714-45.714,45.714h-128c-25.247,0-45.714-20.467-45.714-45.714     V137.143H9.143c-5.049,0-9.143,4.093-9.143,9.143v356.571C0,507.907,4.093,512,9.143,512h493.714     c5.049,0,9.143-4.093,9.143-9.143V146.286C512,141.236,507.907,137.143,502.857,137.143z M338.286,457.143h-27.429     c-5.049,0-9.143-4.093-9.143-9.143c0-5.049,4.093-9.143,9.143-9.143h27.429c5.049,0,9.143,4.093,9.143,9.143     C347.429,453.049,343.335,457.143,338.286,457.143z M338.286,411.429h-27.429c-5.049,0-9.143-4.093-9.143-9.143     c0-5.049,4.093-9.143,9.143-9.143h27.429c5.049,0,9.143,4.093,9.143,9.143C347.429,407.335,343.335,411.429,338.286,411.429z      M338.286,365.714h-27.429c-5.049,0-9.143-4.093-9.143-9.143c0-5.049,4.093-9.143,9.143-9.143h27.429     c5.049,0,9.143,4.093,9.143,9.143C347.429,361.621,343.335,365.714,338.286,365.714z M338.286,320h-27.429     c-5.049,0-9.143-4.093-9.143-9.143c0-5.049,4.093-9.143,9.143-9.143h27.429c5.049,0,9.143,4.093,9.143,9.143     C347.429,315.907,343.335,320,338.286,320z M411.429,457.143H384c-5.049,0-9.143-4.093-9.143-9.143     c0-5.049,4.093-9.143,9.143-9.143h27.429c5.049,0,9.143,4.093,9.143,9.143C420.571,453.049,416.478,457.143,411.429,457.143z      M411.429,411.429H384c-5.049,0-9.143-4.093-9.143-9.143c0-5.049,4.093-9.143,9.143-9.143h27.429     c5.049,0,9.143,4.093,9.143,9.143C420.571,407.335,416.478,411.429,411.429,411.429z M411.429,365.714H384     c-5.049,0-9.143-4.093-9.143-9.143c0-5.049,4.093-9.143,9.143-9.143h27.429c5.049,0,9.143,4.093,9.143,9.143     C420.571,361.621,416.478,365.714,411.429,365.714z M411.429,320H384c-5.049,0-9.143-4.093-9.143-9.143     c0-5.049,4.093-9.143,9.143-9.143h27.429c5.049,0,9.143,4.093,9.143,9.143C420.571,315.907,416.478,320,411.429,320z      M484.571,457.143h-27.429c-5.049,0-9.143-4.093-9.143-9.143c0-5.049,4.093-9.143,9.143-9.143h27.429     c5.049,0,9.143,4.093,9.143,9.143C493.714,453.049,489.621,457.143,484.571,457.143z M484.571,411.429h-27.429     c-5.049,0-9.143-4.093-9.143-9.143c0-5.049,4.093-9.143,9.143-9.143h27.429c5.049,0,9.143,4.093,9.143,9.143     C493.714,407.335,489.621,411.429,484.571,411.429z M484.571,365.714h-27.429c-5.049,0-9.143-4.093-9.143-9.143     c0-5.049,4.093-9.143,9.143-9.143h27.429c5.049,0,9.143,4.093,9.143,9.143C493.714,361.621,489.621,365.714,484.571,365.714z      M484.571,320h-27.429c-5.049,0-9.143-4.093-9.143-9.143c0-5.049,4.093-9.143,9.143-9.143h27.429     c5.049,0,9.143,4.093,9.143,9.143C493.714,315.907,489.621,320,484.571,320z M493.714,256c0,10.099-8.187,18.286-18.286,18.286     H320c-10.099,0-18.286-8.187-18.286-18.286v-73.143c0-10.099,8.187-18.286,18.286-18.286h91.429c5.049,0,9.143,4.093,9.143,9.143     s-4.093,9.143-9.143,9.143H320V256h155.429v-73.143h-18.286c-5.049,0-9.143-4.093-9.143-9.143s4.093-9.143,9.143-9.143h18.286     c10.099,0,18.286,8.187,18.286,18.286V256z" fill="#e7b215"/>
		</g>
	</g>
</g>
<g>
</g>
<g>
</g>
<g>
</g>
<g>
</g>
<g>
</g>
<g>
</g>
<g>
</g>
<g>
</g>
<g>
</g>
<g>
</g>
<g>
</g>
<g>
</g>
<g>
</g>
<g>
</g>
<g>
</g>
</svg>
